# xmcd CD database file
#
# Track frame offsets:
#	150
#	11527
#	26267
#	41105
#	62345
#	78837
#	96440
#	108802
#	118437
#	130682
#	147952
#	168137
#	180630
#	198680
#	229782
#	252617
#	264985
#
# Disc length: 3686 seconds
#
# Revision: 0
# Processed by: cddbd v1.5.2PL0 Copyright (c) Steve Scherf et al.
# Submitted via: CDex 1.70beta2
#
DISCID=e20e6411
DTITLE=Various Artist - Takoma Eclectic Sampler
DYEAR=1900
DGENRE=Blues
TTITLE0=Bukka White-World Boogie
TTITLE1=Canned Heat With Harvey Mandel-She's Lookin' Good
TTITLE2=Sir Douglas Quintet-I Keep Wishing For You
TTITLE3=Maria Muldaur-Just Like An Eagle
TTITLE4=Ronnie Barron-Cha Dooky-Doo
TTITLE5=Dr. Ross-Mama Blues
TTITLE6=Cal Hand-Ferns
TTITLE7=Rose Maddox-Heart Of A Country Song (Aka Rose's Song)
TTITLE8=Ron Thompson and The Resistors-I'm Shakin'
TTITLE9=Swamp Dogg-Wine Women and Rock 'N' Roll
TTITLE10=Ron Cuccia and The Jazz Poetry Group-My Darlin' New Orleans
TTITLE11=Colin Winski-Tennessee Rock 'N' Roll
TTITLE12=Spencer Davis-Crossfire
TTITLE13=Michael Bloomfield-Your Friends
TTITLE14=John Fahey-Indian-Pacific R.R. Blues
TTITLE15=Charles Bukowski-Last Days Of The Suicide Kid
TTITLE16=Santa Monica Pier Merry-Go-Round-Washington Post March
EXTD=
EXTT0=
EXTT1=
EXTT2=
EXTT3=
EXTT4=
EXTT5=
EXTT6=
EXTT7=
EXTT8=
EXTT9=
EXTT10=
EXTT11=
EXTT12=
EXTT13=
EXTT14=
EXTT15=
EXTT16=
PLAYORDER=
